<svg width="24" height="24" viewBox="0 0 24 24" fill="none" xmlns="http://www.w3.org/2000/svg">
<path d="M8.5 7.5C8.5 6.487 9.395 5.5 10.5 5.5C11.605 5.5 12.5 6.32 12.5 7.333C12.5 7.698 12.384 8.038 12.183 8.324C11.585 9.176 10.5 9.987 10.5 11" stroke="#0070C4" stroke-width="1.5" stroke-linecap="round"/>
<path d="M10.5 13.5H10.509" stroke="#0070C4" stroke-width="2" stroke-linecap="round" stroke-linejoin="round"/>
<path d="M8 19.5C9.05 20.37 10.315 20.924 11.764 21.019C12.905 21.094 14.097 21.094 15.237 21.019C15.6444 20.9908 16.045 20.9004 16.425 20.751C16.835 20.584 17.039 20.501 17.144 20.514C17.248 20.526 17.399 20.636 17.701 20.856C18.234 21.244 18.905 21.522 19.901 21.499C20.404 21.487 20.656 21.48 20.768 21.291C20.881 21.101 20.741 20.839 20.46 20.314C20.07 19.586 19.824 18.753 20.198 18.085C20.841 17.131 21.388 16.002 21.468 14.782C21.511 14.127 21.511 13.448 21.468 12.792C21.4159 12.0004 21.2235 11.2243 20.9 10.5" stroke="#0070C4" stroke-width="1.5" stroke-linecap="round" stroke-linejoin="round"/>
<path d="M12.2371 17.0189C13.8554 16.9119 15.3796 16.2203 16.5258 15.0728C17.672 13.9253 18.3619 12.4003 18.4671 10.7819C18.5111 10.1269 18.5111 9.4479 18.4671 8.7919C18.3617 7.17364 17.6716 5.64887 16.5255 4.50161C15.3793 3.35436 13.8552 2.66285 12.2371 2.5559C11.0806 2.48137 9.92053 2.48137 8.76406 2.5559C7.14546 2.66262 5.62086 3.35413 4.47432 4.50159C3.32777 5.64906 2.63748 7.17422 2.53206 8.7929C2.48801 9.4555 2.48801 10.1203 2.53206 10.7829C2.61206 12.0029 3.15906 13.1319 3.80206 14.0849C4.17606 14.7529 3.92906 15.5859 3.54006 16.3149C3.26006 16.8389 3.12006 17.1009 3.23206 17.2909C3.34506 17.4809 3.59606 17.4859 4.10006 17.4989C5.09506 17.5229 5.76606 17.2439 6.29906 16.8559C6.60106 16.6359 6.75206 16.5259 6.85606 16.5139C6.96006 16.5019 7.16606 16.5839 7.57606 16.7509C7.94406 16.9009 8.37106 16.9929 8.76406 17.0189C9.90306 17.0939 11.0941 17.0939 12.2371 17.0189Z" stroke="#0070C4" stroke-width="1.5" stroke-linejoin="round"/>
</svg>
