<svg width="24" height="24" viewBox="0 0 24 24" fill="none" xmlns="http://www.w3.org/2000/svg">
<g clip-path="url(#clip0_3244_2286)">
<path fill-rule="evenodd" clip-rule="evenodd" d="M8.86036 13.7371C9.44036 13.1271 10.0104 12.5461 10.5414 12.0861C10.9464 12.1951 11.3634 12.2561 11.7814 12.2661C11.8195 12.269 11.8579 12.2643 11.8943 12.2522C11.9306 12.2402 11.9642 12.221 11.9931 12.1959C12.022 12.1708 12.0457 12.1403 12.0627 12.106C12.0797 12.0717 12.0898 12.0344 12.0924 11.9961C12.0951 11.9586 12.0902 11.9208 12.0779 11.8852C12.0657 11.8495 12.0464 11.8167 12.0212 11.7887C11.996 11.7607 11.9654 11.738 11.9312 11.7221C11.897 11.7062 11.86 11.6974 11.8224 11.6961C9.57136 11.4861 8.52036 10.0941 8.49036 8.63414C8.80036 8.79814 9.14036 8.90014 9.49036 8.93414C9.65436 8.95881 9.81769 8.95881 9.98036 8.93414C10.147 8.91148 10.3074 8.86814 10.4614 8.80414C10.8484 8.66372 11.1927 8.42611 11.4614 8.11414C11.4614 8.11414 11.4614 8.03414 11.5214 7.99414C11.6467 8.07414 11.777 8.14414 11.9124 8.20414C12.2574 8.36514 12.6204 8.48614 12.9924 8.56414C13.7024 8.69614 14.4294 8.71314 15.1444 8.61414C15.2303 9.37303 15.0235 10.1361 14.5662 10.7478C14.1089 11.3595 13.4355 11.7738 12.6834 11.9061C12.5975 11.9162 12.519 11.9596 12.4648 12.0269C12.4106 12.0942 12.3849 12.1801 12.3934 12.2661C12.4058 12.3528 12.4512 12.4314 12.5202 12.4854C12.5891 12.5394 12.6762 12.5648 12.7634 12.5561C13.2494 12.5068 13.7213 12.3642 14.1534 12.1361C14.5 12.5081 14.81 12.9081 15.0834 13.3361C15.2434 13.5761 15.3944 13.8161 15.5444 14.0661C15.6944 14.3161 15.8244 14.5671 15.9544 14.8271C16.1104 15.1258 16.247 15.4325 16.3644 15.7471C16.5744 16.1081 17.0854 16.1781 17.2954 15.5471C17.2154 14.8871 17.1154 15.0071 16.9154 14.4271C16.8042 14.113 16.6671 13.8086 16.5054 13.5171C16.3456 13.2212 16.1509 12.9456 15.9254 12.6961C15.5774 12.3162 15.1841 11.9803 14.7544 11.6961C15.2188 11.2471 15.5753 10.6986 15.797 10.0918C16.0187 9.485 16.0999 8.83583 16.0344 8.19314C16.0346 7.66752 15.9313 7.147 15.7303 6.66133C15.5292 6.17567 15.2345 5.73439 14.8628 5.36272C14.4911 4.99104 14.0498 4.69627 13.5642 4.49524C13.0785 4.29422 12.558 4.19088 12.0324 4.19114C10.894 4.14438 9.78327 4.5492 8.94196 5.31746C8.10065 6.08573 7.59689 7.15524 7.54036 8.29314C7.51027 9.03851 7.70742 9.77543 8.10567 10.4062C8.50392 11.037 9.08447 11.5318 9.77036 11.8251C9.18636 12.1681 8.63336 12.5631 8.12036 13.0061C7.66386 13.4009 7.26647 13.8593 6.94036 14.3671C6.61815 14.834 6.44997 15.39 6.45936 15.9571C6.45936 16.4281 7.03936 16.6881 7.11936 16.3081C7.19936 15.6181 7.40936 15.5581 7.82936 14.9781C8.15069 14.5448 8.49436 14.1311 8.86036 13.7371ZM12.0324 5.34214C12.7544 5.30995 13.4625 5.54854 14.0178 6.01118C14.5731 6.47382 14.9356 7.12714 15.0344 7.84314C14.4231 7.81896 13.8176 7.71473 13.2334 7.53314C12.641 7.34324 12.0784 7.07055 11.5624 6.72314C11.1317 6.4442 10.7413 6.10738 10.4024 5.72214C10.9147 5.4874 11.469 5.35817 12.0324 5.34214ZM9.74136 6.08214C10.0214 6.64814 10.4124 7.15214 10.8914 7.56314L10.9414 7.61314C10.8107 7.67129 10.6728 7.71165 10.5314 7.73314C10.368 7.74314 10.2047 7.74314 10.0414 7.73314L9.55136 7.80314C9.22423 7.89165 8.88936 7.94858 8.55136 7.97314C8.69942 7.21717 9.12364 6.54241 9.74136 6.08214Z" fill="#0070C4"/>
<path fill-rule="evenodd" clip-rule="evenodd" d="M15.7242 17.6768C15.7535 17.6304 15.7691 17.5766 15.7691 17.5218C15.7691 17.4669 15.7535 17.4132 15.7242 17.3668C15.4842 16.9768 14.9242 17.5068 14.2942 17.6568C13.7302 17.7854 13.1595 17.8688 12.5822 17.9068C11.1101 18.0354 9.62707 17.8688 8.22018 17.4168C7.5093 17.2023 6.83474 16.882 6.21918 16.4668C5.62645 16.0833 5.09083 15.618 4.62818 15.0848C3.80317 14.0628 3.25788 12.8439 3.04576 11.5477C2.83364 10.2515 2.96198 8.92245 3.41818 7.69077C3.81002 6.44015 4.46177 5.28647 5.33069 4.30536C6.1996 3.32425 7.26608 2.53787 8.46018 1.99777C9.1943 1.6839 9.95862 1.44599 10.7412 1.28777C11.4924 1.11704 12.2655 1.06307 13.0332 1.12777C15.1302 1.41577 17.0332 2.51077 18.3362 4.17877C19.6706 5.85304 20.3969 7.9308 20.3962 10.0718C20.386 10.9015 20.282 11.7274 20.0862 12.5338C19.9017 13.3356 19.562 14.0935 19.0862 14.7648C18.6319 15.2836 18.137 15.7655 17.6062 16.2058C17.1561 16.4489 16.7275 16.7299 16.3252 17.0458C16.2964 17.102 16.2839 17.165 16.289 17.2279C16.294 17.2908 16.3165 17.3511 16.3539 17.4019C16.3912 17.4528 16.442 17.4923 16.5005 17.5159C16.559 17.5395 16.623 17.5464 16.6852 17.5358C17.8292 16.9595 18.8491 16.1645 19.6872 15.1958C20.2372 14.4658 20.6272 13.6258 20.8272 12.7338C21.0619 11.8684 21.1929 10.9781 21.2172 10.0818C21.272 7.73571 20.5162 5.44249 19.0772 3.58877C17.6614 1.68254 15.5498 0.413016 13.2022 0.0567747C12.3112 -0.0461114 11.4097 -0.00899611 10.5302 0.166775C9.67308 0.338732 8.83551 0.596705 8.03018 0.936775C6.68523 1.54322 5.48626 2.43153 4.51442 3.54156C3.54257 4.6516 2.82054 5.95747 2.39718 7.37077C1.91742 8.77326 1.81548 10.2774 2.10162 11.7318C2.38776 13.1862 3.05189 14.5396 4.02718 15.6558C5.14867 16.7873 6.51962 17.6405 8.03018 18.1468C9.55138 18.5389 11.1274 18.6741 12.6932 18.5468C13.2997 18.4911 13.9014 18.3908 14.4932 18.2468C14.9178 18.0868 15.3282 17.8968 15.7242 17.6768Z" fill="#0070C4"/>
<path fill-rule="evenodd" clip-rule="evenodd" d="M22.038 21.0905C21.9331 20.5985 21.7061 20.1408 21.378 19.7595C20.968 19.2695 20.427 18.8795 19.967 18.4295C19.507 17.9795 19.227 17.6685 18.846 17.3085C18.7352 17.2009 18.6147 17.1038 18.486 17.0185C18.4301 16.959 18.3553 16.9208 18.2743 16.9107C18.1933 16.9005 18.1113 16.919 18.0425 16.9629C17.9737 17.0068 17.9224 17.0733 17.8975 17.1511C17.8725 17.2288 17.8755 17.3128 17.906 17.3885C18.066 17.5145 18.2093 17.6578 18.336 17.8185C18.686 18.1985 19.016 18.6185 19.336 18.9985C19.656 19.3785 20.226 19.8595 20.597 20.3495C20.801 20.6195 20.935 20.9365 20.987 21.2695C21.0034 21.5591 20.9295 21.8466 20.7755 22.0924C20.6214 22.3382 20.3948 22.5301 20.127 22.6415C19.8839 22.8099 19.5983 22.9066 19.3029 22.9208C19.0075 22.9349 18.7141 22.8659 18.456 22.7215C18.2405 22.5549 18.0488 22.3598 17.886 22.1415C17.6176 21.7447 17.3767 21.3301 17.165 20.9005C16.805 20.2205 16.445 19.5395 16.165 18.8285C16.015 18.4885 16.055 18.5985 15.915 18.2485C15.775 17.8985 15.254 18.2485 15.364 18.5085C15.514 18.9785 15.484 18.9985 15.654 19.4585C15.884 20.0795 16.134 20.6905 16.404 21.3005C16.5993 21.7831 16.8263 22.2498 17.085 22.7005C17.29 23.0365 17.55 23.3345 17.855 23.5815C18.28 23.8558 18.7751 24.0016 19.281 24.0016C19.7868 24.0016 20.2819 23.8558 20.707 23.5815C21.1605 23.3566 21.5325 22.9956 21.7709 22.549C22.0094 22.1024 22.1034 21.5925 22.038 21.0905ZM12.292 13.4965C12.2964 13.4384 12.2825 13.3805 12.2524 13.3306C12.2223 13.2808 12.1774 13.2416 12.124 13.2185C12.0885 13.2037 12.0504 13.1959 12.012 13.1955C11.9546 13.1935 11.898 13.2086 11.8492 13.2389C11.8004 13.2692 11.7617 13.3132 11.738 13.3655C11.7224 13.4002 11.7136 13.4375 11.712 13.4755C11.622 13.8355 11.512 14.1755 11.452 14.5565C11.4047 14.8613 11.4047 15.1716 11.452 15.4765C11.502 15.8465 11.582 16.1975 11.662 16.5575C11.662 16.645 11.6967 16.7289 11.7586 16.7908C11.8205 16.8527 11.9045 16.8875 11.992 16.8875C12.0795 16.8875 12.1634 16.8527 12.2253 16.7908C12.2872 16.7289 12.322 16.645 12.322 16.5575C12.322 16.1975 12.452 15.8575 12.492 15.4975C12.5008 15.3443 12.5008 15.1907 12.492 15.0375C12.502 14.8868 12.502 14.7368 12.492 14.5875C12.462 14.1965 12.362 13.8565 12.292 13.4965Z" fill="#0070C4"/>
</g>
<defs>
<clipPath id="clip0_3244_2286">
<rect width="24" height="24" fill="white"/>
</clipPath>
</defs>
</svg>
