<svg width="24" height="24" viewBox="0 0 24 24" fill="none" xmlns="http://www.w3.org/2000/svg">
<path d="M12.28 10.8732C11.5302 10.8653 10.7995 10.6358 10.1799 10.2135C9.56024 9.79114 9.07942 9.19494 8.79793 8.49992C8.51644 7.80491 8.44687 7.04214 8.59798 6.30767C8.74909 5.5732 9.11412 4.89985 9.64712 4.3724C10.1801 3.84496 10.8573 3.48699 11.5933 3.34358C12.3293 3.20017 13.0913 3.27772 13.7833 3.56648C14.4753 3.85523 15.0665 4.34227 15.4823 4.96628C15.8981 5.59029 16.12 6.32337 16.12 7.07323C16.113 8.08581 15.7049 9.05432 14.9851 9.76658C14.2653 10.4788 13.2926 10.8768 12.28 10.8732ZM12.28 4.60656C11.7939 4.61445 11.321 4.76579 10.9207 5.04157C10.5203 5.31736 10.2104 5.7053 10.0298 6.15666C9.84926 6.60803 9.80608 7.10268 9.90573 7.5785C10.0054 8.05433 10.2434 8.49009 10.5899 8.83107C10.9364 9.17205 11.376 9.40304 11.8533 9.49502C12.3307 9.587 12.8246 9.53587 13.273 9.34805C13.7214 9.16024 14.1043 8.84412 14.3736 8.43939C14.6429 8.03466 14.7866 7.55937 14.7867 7.07323C14.7796 6.41427 14.512 5.7849 14.0423 5.32268C13.5726 4.86047 12.939 4.603 12.28 4.60656Z" fill="#0070C4"/>
<path d="M12.2802 10.8732C11.5304 10.8653 10.7997 10.6358 10.18 10.2135C9.56041 9.79114 9.07959 9.19494 8.7981 8.49992C8.51661 7.80491 8.44704 7.04214 8.59815 6.30767C8.74926 5.5732 9.1143 4.89985 9.64729 4.3724C10.1803 3.84496 10.8574 3.48699 11.5934 3.34358C12.3295 3.20017 13.0914 3.27772 13.7835 3.56648C14.4755 3.85523 15.0666 4.34227 15.4825 4.96628C15.8983 5.59029 16.1202 6.32337 16.1202 7.07323C16.1131 8.08581 15.705 9.05432 14.9853 9.76658C14.2655 10.4788 13.2928 10.8768 12.2802 10.8732ZM12.2802 4.60656C11.7941 4.61445 11.3212 4.76579 10.9209 5.04157C10.5205 5.31736 10.2106 5.7053 10.03 6.15666C9.84943 6.60803 9.80625 7.10268 9.9059 7.5785C10.0055 8.05433 10.2436 8.49009 10.5901 8.83107C10.9366 9.17205 11.3761 9.40304 11.8535 9.49502C12.3309 9.587 12.8248 9.53587 13.2732 9.34805C13.7216 9.16024 14.1045 8.84412 14.3738 8.43939C14.6431 8.03466 14.7868 7.55937 14.7869 7.07323C14.7798 6.41427 14.5122 5.7849 14.0425 5.32268C13.5728 4.86047 12.9392 4.603 12.2802 4.60656ZM14.6069 11.7666C11.6499 11.252 8.60577 11.7203 5.94019 13.0999C5.75098 13.205 5.5943 13.36 5.4873 13.5482C5.3803 13.7363 5.3271 13.9502 5.33353 14.1666V16.5399C5.33353 16.7167 5.40377 16.8863 5.52879 17.0113C5.65381 17.1363 5.82338 17.2066 6.00019 17.2066C6.17701 17.2066 6.34657 17.1363 6.4716 17.0113C6.59662 16.8863 6.66686 16.7167 6.66686 16.5399V14.2532C9.13864 13.013 11.9495 12.6195 14.6669 13.1332L14.6069 11.7666Z" fill="#0070C4"/>
<path d="M21.9998 14.669H17.5332V13.6823C17.5332 13.5055 17.4629 13.3359 17.3379 13.2109C17.2129 13.0859 17.0433 13.0156 16.8665 13.0156C16.6897 13.0156 16.5201 13.0859 16.3951 13.2109C16.2701 13.3359 16.1998 13.5055 16.1998 13.6823V14.669H11.3332C11.1564 14.669 10.9868 14.7392 10.8618 14.8642C10.7367 14.9892 10.6665 15.1588 10.6665 15.3356V22.0023C10.6665 22.1791 10.7367 22.3487 10.8618 22.4737C10.9868 22.5987 11.1564 22.669 11.3332 22.669H21.9998C22.1766 22.669 22.3462 22.5987 22.4712 22.4737C22.5963 22.3487 22.6665 22.1791 22.6665 22.0023V15.3356C22.6665 15.1588 22.5963 14.9892 22.4712 14.8642C22.3462 14.7392 22.1766 14.669 21.9998 14.669ZM21.3332 21.3356H11.9998V16.0023H16.1998V16.2756C16.1998 16.4524 16.2701 16.622 16.3951 16.747C16.5201 16.8721 16.6897 16.9423 16.8665 16.9423C17.0433 16.9423 17.2129 16.8721 17.3379 16.747C17.4629 16.622 17.5332 16.4524 17.5332 16.2756V16.0023H21.3332V21.3356Z" fill="#0070C4"/>
<path d="M14.5402 18.2788H18.5135V19.2121H14.5402V18.2788ZM7.22683 8.15878C5.38113 8.18966 3.56743 8.64593 1.92683 9.49211C1.7484 9.58636 1.59895 9.72732 1.49444 9.89994C1.38993 10.0726 1.3343 10.2703 1.3335 10.4721V12.5388C1.3335 12.7156 1.40373 12.8852 1.52876 13.0102C1.65378 13.1352 1.82335 13.2054 2.00016 13.2054C2.17697 13.2054 2.34654 13.1352 2.47157 13.0102C2.59659 12.8852 2.66683 12.7156 2.66683 12.5388V10.6054C4.23436 9.82519 5.96987 9.44283 7.72016 9.49211C7.49134 9.07421 7.32512 8.62497 7.22683 8.15878ZM22.0735 9.48544C20.6021 8.71358 18.985 8.25934 17.3268 8.15211C17.2288 8.61744 17.065 9.0664 16.8402 9.48544C18.4022 9.52305 19.9366 9.90551 21.3335 10.6054V12.5388C21.3335 12.7156 21.4037 12.8852 21.5288 13.0102C21.6538 13.1352 21.8234 13.2054 22.0002 13.2054C22.177 13.2054 22.3465 13.1352 22.4716 13.0102C22.5966 12.8852 22.6668 12.7156 22.6668 12.5388V10.4721C22.6672 10.2692 22.6122 10.07 22.5076 9.89613C22.403 9.72223 22.2529 9.58022 22.0735 9.48544ZM7.10683 7.07211V6.62544C6.58457 6.55555 6.1094 6.28693 5.78021 5.87551C5.45103 5.46408 5.2932 4.94155 5.33959 4.41668C5.38597 3.89182 5.633 3.40506 6.02924 3.05775C6.42549 2.71043 6.94041 2.52932 7.46683 2.55211C8.01437 2.55112 8.54065 2.76402 8.9335 3.14544C9.28025 2.85978 9.6609 2.61796 10.0668 2.42544C9.61324 1.90388 9.01225 1.532 8.34309 1.35882C7.67392 1.18564 6.96798 1.21929 6.31832 1.45534C5.66866 1.69138 5.10578 2.11874 4.70385 2.68108C4.30192 3.24342 4.07982 3.91435 4.06683 4.60544C4.08082 5.45128 4.40963 6.26152 4.98903 6.87791C5.56843 7.49429 6.35681 7.87254 7.20016 7.93878C7.14354 7.65321 7.11231 7.36319 7.10683 7.07211ZM16.5135 1.21878C16.0554 1.21888 15.6018 1.31031 15.1794 1.48774C14.7571 1.66517 14.3743 1.92502 14.0535 2.25211C14.5038 2.41641 14.9298 2.64065 15.3202 2.91878C15.6314 2.70273 15.9954 2.5752 16.3734 2.54978C16.7515 2.52437 17.1293 2.60202 17.4666 2.77446C17.804 2.9469 18.0882 3.20766 18.289 3.52894C18.4898 3.85022 18.5997 4.21998 18.6068 4.59878C18.6026 4.98787 18.4883 5.36781 18.2771 5.69463C18.0659 6.02144 17.7665 6.28176 17.4135 6.44544C17.4406 6.65099 17.454 6.85812 17.4535 7.06544C17.4514 7.33341 17.4291 7.60083 17.3868 7.86544C18.1131 7.67873 18.7573 7.25716 19.2191 6.66635C19.6808 6.07554 19.9344 5.34863 19.9402 4.59878C19.9314 3.69698 19.566 2.83531 18.924 2.202C18.2819 1.56869 17.4153 1.21521 16.5135 1.21878Z" fill="#0070C4"/>
</svg>
