<svg width="32" height="32" viewBox="0 0 32 32" fill="none" xmlns="http://www.w3.org/2000/svg">
<path d="M14.6132 28C14.303 28 14.0341 27.8982 13.8065 27.6947C13.5781 27.4911 13.4363 27.2373 13.3812 26.9333L13.0305 24.144C12.6048 24.0151 12.1443 23.8133 11.6492 23.5387C11.155 23.2631 10.7341 22.968 10.3865 22.6533L7.8332 23.752C7.55142 23.8764 7.2652 23.8898 6.97453 23.792C6.68387 23.6942 6.45987 23.5098 6.30253 23.2387L4.86387 20.76C4.70653 20.4889 4.66031 20.2053 4.7252 19.9093C4.79009 19.6133 4.94475 19.3707 5.1892 19.1813L7.41853 17.5147C7.37853 17.2729 7.34609 17.0245 7.3212 16.7693C7.29453 16.5133 7.2812 16.2649 7.2812 16.024C7.2812 15.8 7.29453 15.5645 7.3212 15.3173C7.34609 15.0702 7.37853 14.792 7.41853 14.4827L5.1892 12.816C4.94475 12.6267 4.79453 12.38 4.73853 12.076C4.68253 11.772 4.73275 11.484 4.8892 11.212L6.30253 8.81201C6.45987 8.55689 6.68387 8.37645 6.97453 8.27067C7.2652 8.1649 7.55142 8.17423 7.8332 8.29867L10.3612 9.37067C10.7594 9.03912 11.1905 8.74001 11.6545 8.47334C12.1168 8.20667 12.567 8.00045 13.0052 7.85467L13.3825 5.06534C13.4368 4.76134 13.5781 4.50756 13.8065 4.30401C14.035 4.10045 14.3039 3.99912 14.6132 4.00001H17.3865C17.6968 4.00001 17.9656 4.10178 18.1932 4.30534C18.4216 4.50889 18.5634 4.76267 18.6185 5.06667L18.9692 7.88267C19.4803 8.06223 19.9319 8.26801 20.3239 8.50001C20.7159 8.73201 21.1199 9.02267 21.5359 9.37201L24.1919 8.30001C24.4745 8.17556 24.7612 8.16623 25.0519 8.27201C25.3425 8.37778 25.5661 8.55823 25.7225 8.81334L27.1359 11.2387C27.2932 11.5107 27.3394 11.7942 27.2745 12.0893C27.2096 12.3845 27.055 12.6276 26.8105 12.8187L24.4799 14.56C24.5528 14.8356 24.5936 15.0885 24.6025 15.3187C24.6114 15.5489 24.6159 15.7756 24.6159 15.9987C24.6159 16.2058 24.607 16.424 24.5892 16.6533C24.5723 16.8836 24.5332 17.1618 24.4719 17.488L26.7252 19.1813C26.9696 19.3707 27.1288 19.6133 27.2025 19.9093C27.2763 20.2053 27.2345 20.4889 27.0772 20.76L25.6559 23.212C25.4994 23.484 25.2714 23.6685 24.9719 23.7653C24.6723 23.8631 24.3816 23.8498 24.0999 23.7253L21.5359 22.6267C21.1208 22.976 20.703 23.2751 20.2825 23.524C19.8621 23.7729 19.4243 23.9707 18.9692 24.1173L18.6172 26.932C18.563 27.236 18.4216 27.4898 18.1932 27.6933C17.9648 27.8969 17.6959 27.9991 17.3865 28H14.6132ZM14.6665 26.6667H17.2745L17.7665 23.056C18.4385 22.8782 19.043 22.6342 19.5799 22.324C20.1185 22.0138 20.6661 21.5889 21.2225 21.0493L24.5492 22.4667L25.8745 20.2L22.9559 18.008C23.067 17.6285 23.1408 17.2791 23.1772 16.96C23.2128 16.6418 23.2305 16.3218 23.2305 16C23.2305 15.6622 23.2128 15.3422 23.1772 15.04C23.1416 14.7378 23.0679 14.4058 22.9559 14.044L25.9252 11.8L24.5999 9.53334L21.1972 10.96C20.7936 10.5165 20.2634 10.1009 19.6065 9.71334C18.9488 9.32667 18.3265 9.07023 17.7399 8.94401L17.3332 5.33334H14.6745L14.2585 8.91867C13.5865 9.06178 12.9688 9.29289 12.4052 9.61201C11.8425 9.93023 11.2825 10.368 10.7252 10.9253L7.39987 9.53334L6.07453 11.8L8.96653 13.96C8.85542 14.2587 8.77764 14.5831 8.7332 14.9333C8.68875 15.2836 8.66653 15.648 8.66653 16.0267C8.66653 16.3645 8.68875 16.7 8.7332 17.0333C8.77764 17.3667 8.84698 17.6911 8.9412 18.0067L6.07453 20.2L7.39987 22.4667L10.6999 21.0667C11.2234 21.5947 11.7665 22.0182 12.3292 22.3373C12.8928 22.6565 13.5274 22.9049 14.2332 23.0827L14.6665 26.6667ZM15.9639 19.3333C16.8936 19.3333 17.6816 19.0102 18.3279 18.364C18.9741 17.7178 19.2972 16.9298 19.2972 16C19.2972 15.0702 18.9741 14.2822 18.3279 13.636C17.6816 12.9898 16.8936 12.6667 15.9639 12.6667C15.0288 12.6667 14.2394 12.9898 13.5959 13.636C12.9523 14.2822 12.6305 15.0702 12.6305 16C12.6305 16.9298 12.9523 17.7178 13.5959 18.364C14.2394 19.0102 15.0288 19.3333 15.9639 19.3333Z" fill="#0070C4"/>
</svg>
